<svg xmlns="http://www.w3.org/2000/svg" width="173" height="17" viewBox="0 0 173 17">
  <defs>
    <style>
      .cls-1 {
        fill: #fff;
        fill-rule: evenodd;
      }
    </style>
  </defs>
  <path id="купиКупе" class="cls-1" d="M149.987,86v17h2.346V95.071h6.8L164.062,103h2.8l-5.714-9.159L166.408,86h-2.737l-4.631,6.854h-6.707V86h-2.346Zm20.723,0,2.767,7.929a4.6,4.6,0,0,0,4.421,3.35h4.932l-0.692,2a2.45,2.45,0,0,1-2.5,1.6h-4.03V103h4.241a4.589,4.589,0,0,0,4.451-3.319L188.7,86h-2.376l-2.887,9.066h-5.354a2.316,2.316,0,0,1-2.285-1.567L173.146,86H170.71Zm23.55,0v17h2.345V88.187H208V103h2.346V86H194.26Zm22.5,0v17h2.436l12.241-13.769V103h2.346V86h-2.406L219.1,99.865V86h-2.346Zm23.249,0v17h3.729V95.778h4.933L253.028,103h4.451l-5.715-9.128L257.088,86h-4.331l-4.18,6.27h-4.843V86h-3.729Zm21.2,0L263.886,94a4.542,4.542,0,0,0,4.722,3.5h3.759l-0.361,1.168a1.579,1.579,0,0,1-1.534,1.076h-4.511V103h4.692a5.064,5.064,0,0,0,4.752-3.534L279.826,86h-3.82l-2.617,8.083h-4.6a1.292,1.292,0,0,1-1.293-.922L265.089,86h-3.88Zm23.85,0v17h3.73V89.416h8.9V103h3.759V86H285.059Zm22.407,0v17h15.519V99.466h-11.76V96.085h10.2V92.612h-10.2V89.477h11.339V86h-15.1Z" transform="translate(-150 -86)"/>
</svg>
